<svg xmlns="http://www.w3.org/2000/svg" viewBox="0 0 120 19.1"><defs><style>.a{fill:#3B3836;}</style></defs><title>DesignGood-Logo-120x19</title><path class="a" d="M81.2,15.3c-1.4,0-3.2.7-5,.7-4.8,0-9-3.3-9-8s4.2-8,9-8c1.9,0,3,.7,4.2.7s.8-.3,1.1-.7l.3,6.3h-.1C81.4,3.7,79.9.2,76.4.2S72.2,4.8,72.2,8s.5,7.9,4.2,7.9l1.4-.2V8.6h4.4V16C82,15.7,81.8,15.3,81.2,15.3Z"/><path class="a" d="M89.6,5.8c3.1,0,5.5,2.1,5.5,5.1a5.5,5.5,0,0,1-11,0C84.1,7.9,86.5,5.8,89.6,5.8Zm0,10.1c1.7,0,1.7-2,1.7-5s0-5-1.7-5-1.7,2-1.7,5S87.9,15.9,89.6,15.9Z"/><path class="a" d="M101.6,5.8a5.2,5.2,0,0,1,5.5,5.1,5.3,5.3,0,0,1-5.5,5.1,5.2,5.2,0,0,1-5.5-5.1C96.1,7.9,98.5,5.8,101.6,5.8Zm0,10.1c1.7,0,1.7-2,1.7-5s0-5-1.7-5-1.8,2-1.8,5S99.8,15.9,101.6,15.9Z"/><path class="a" d="M118.2,13.6c0,.9.4,2,1.7.9h.1a5.1,5.1,0,0,1-3.3,1.5c-1.2,0-1.9-.9-2-2.2a2.9,2.9,0,0,1-2.9,2.2c-2.7,0-3.9-2.6-3.9-4.9a5.1,5.1,0,0,1,5.2-5.3,1.5,1.5,0,0,1,1.6,1V1.5l-1.9.2h0l5.4-.7Zm-3.5-6.1A1.4,1.4,0,0,0,113.4,6c-1.8,0-1.8,3.1-1.8,4.9s.1,4.4,1.5,4.4,1.4-1.2,1.6-2Z"/><path class="a" d="M18.8,9.7c.1,1.9.7,4.7,3.2,4.7a3.9,3.9,0,0,0,3.3-2.5h.1a6,6,0,0,1-5.5,3.9A4.7,4.7,0,0,1,15,10.9a6.8,6.8,0,0,1,.2-1.5H10.7c-.8,0-1.3.2-1.3,1a1.3,1.3,0,0,0,.9,1.2,1.8,1.8,0,0,1-1.9,1.7,1.9,1.9,0,0,1-2-1.9C6.4,9.5,8.3,9,9.7,9l5.6.2C15.9,7,18,5.6,20.7,5.6S25.5,7.1,25,9.5A22,22,0,0,1,18.8,9.7Zm0-.2h2.8c.4-1.2.3-4-1-4S18.8,7.8,18.8,9.5Z"/><path class="a" d="M0,15.8c2,0,2-1.1,2-3.3V6.1C2,3.8,2,2.8,0,2.8H7.1c4.7,0,7.6,2.1,7.6,6.6s-2.3,6.6-6.8,6.6H0ZM10.6,9.3c0-4.4-.5-6.5-4.1-6.5H6V13.6c0,1.8,0,2.2,1.2,2.2S10.6,14.1,10.6,9.3Z"/><path class="a" d="M26.4,11.6h.1a4.5,4.5,0,0,0,4.6,3.9c1.2,0,2-.6,2-1.3s-6.7-1.9-6.7-5.6S29,5.4,31,5.4a8.6,8.6,0,0,1,2.4.4l1.2-.4.2,3.4h-.1a3.8,3.8,0,0,0-3.8-3.2c-1.1,0-1.8.5-1.8,1.3s6.6,1.6,6.6,5.3c0,2-2,3.4-4.6,3.4a11.5,11.5,0,0,1-3.1-.4l-1.4.4Z"/><path class="a" d="M36.4,15.5h0c1.5,0,1.6-.4,1.6-2.4V8.4c0-1.3-.2-1.8-1.9-1.4h0l5.4-1.5V13c0,2,.2,2.4,1.7,2.4H36.4Zm5.4-13a2,2,0,0,1-2,2.1,2.1,2.1,0,0,1-2.1-2.1,2,2,0,0,1,2.1-2A2,2,0,0,1,41.8,2.5Z"/><path class="a" d="M43.6,16.9c0-.9.7-1.3,1.5-1.3a1.3,1.3,0,0,1,1.4,1.2.9.9,0,0,0-.6,1c0,.7.5,1.1,2.3,1.1s4-.8,4-2.1-.8-1.4-2.3-1.4H47.7c-1.9,0-4.1-.3-4.1-2.2s1-1.9,2.6-2.8a2.3,2.3,0,0,1-1.9-2.1c0-2.2,3-3.1,4.8-3a2.5,2.5,0,0,1,2.3-3.5,1.7,1.7,0,0,1,1.8,1.6A1.6,1.6,0,0,1,51.6,5c.1-.6-.6-.9-1.2-.9s-1.3.3-1.2,1.2c2.1,0,4.1,1.2,4.1,2.6s-1.9,3-4.7,3a6.6,6.6,0,0,1-2.3-.4C44.8,11.6,46,12,48,12h2c1.9,0,4.3.4,4.3,2.9s-2.7,4.2-6.3,4.2C45.9,19.1,43.6,18.7,43.6,16.9ZM47.5,8c0,1.9.4,2.8,1.4,2.8s1.2-1.6,1.2-2.7-.4-2.7-1.4-2.7S47.5,6.2,47.5,8Z"/><path class="a" d="M61.5,15.5h0c1,0,1-.5,1-2.1V8.7c0-.8-.1-1.8-1.2-1.8a2.5,2.5,0,0,0-1.6.7v5.7c0,1.2,0,2.1,1,2.1H54.5c1.5,0,1.7-.4,1.7-2.4V8.4c0-1.3-.3-1.8-1.9-1.4h-.1l5.5-1.5V7.5c1.8-1.6,3-2.1,4.1-2.1S66,6.3,66,8.2V13c0,2,.2,2.4,1.7,2.4H61.5Z"/></svg>